# Blender v2.91.0 OBJ File: 'HexaBlock.blend'
# www.blender.org
mtllib HexaBlock.mtl
o Cylinder
v -0.050000 0.000000 -1.000000
v -0.050000 -0.866025 -0.500000
v -0.050000 -0.866025 0.500000
v -0.050000 0.000000 1.000000
v -0.050000 0.866025 0.500000
v -0.050000 0.866025 -0.500000
v 0.050000 -0.000000 -0.947454
v 0.004494 -0.000000 -1.000000
v 0.050000 -0.820519 -0.473727
v 0.004494 -0.866025 -0.500000
v 0.050000 -0.820519 0.473727
v 0.004494 -0.866025 0.500000
v 0.050000 0.000000 0.947454
v 0.004494 0.000000 1.000000
v 0.050000 0.820519 0.473727
v 0.004494 0.866025 0.500000
v 0.050000 0.820519 -0.473727
v 0.004494 0.866025 -0.500000
vt 0.166667 0.500000
vt 0.166667 0.772468
vt -0.000000 0.772468
vt -0.000000 0.500000
vt 0.666667 0.500000
vt 0.666667 0.772468
vt 0.500000 0.772468
vt 0.500000 0.500000
vt 0.333333 0.772468
vt 0.333333 0.500000
vt 1.000000 0.500000
vt 1.000000 0.772468
vt 0.833333 0.772468
vt 0.833333 0.500000
vt 0.750000 0.490000
vt 0.957846 0.370000
vt 0.957846 0.130000
vt 0.750000 0.010000
vt 0.542154 0.130000
vt 0.542154 0.370000
vt 0.995621 1.000000
vt 0.837712 1.000000
vt 0.828954 1.000000
vt 0.671045 1.000000
vt 0.662288 1.000000
vt 0.504379 1.000000
vt 0.495621 1.000000
vt 0.337712 1.000000
vt 0.328954 1.000000
vt 0.171045 1.000000
vt 0.162288 1.000000
vt 0.004379 1.000000
vt 0.446925 0.363694
vt 0.250000 0.477389
vt 0.053075 0.363694
vt 0.053075 0.136306
vt 0.250000 0.022611
vt 0.446925 0.136306
vn 0.0000 0.5000 -0.8660
vn 0.0000 -0.5000 0.8660
vn 0.0000 0.5000 0.8660
vn 0.0000 1.0000 0.0000
vn 0.0000 -0.5000 -0.8660
vn 0.0000 -1.0000 0.0000
vn -1.0000 0.0000 -0.0000
vn 0.7071 -0.3536 -0.6124
vn 0.7071 -0.7071 0.0000
vn 0.7071 -0.3536 0.6124
vn 0.7071 0.3536 0.6124
vn 0.7071 0.7071 0.0000
vn 0.7071 0.3536 -0.6124
vn 1.0000 -0.0000 0.0000
usemtl None
s off
f 6/1/1 18/2/1 8/3/1 1/4/1
f 3/5/2 12/6/2 14/7/2 4/8/2
f 4/8/3 14/7/3 16/9/3 5/10/3
f 5/10/4 16/9/4 18/2/4 6/1/4
f 1/11/5 8/12/5 10/13/5 2/14/5
f 2/14/6 10/13/6 12/6/6 3/5/6
f 1/15/7 2/16/7 3/17/7 4/18/7 5/19/7 6/20/7
f 10/13/8 8/12/8 7/21/8 9/22/8
f 12/6/9 10/13/9 9/23/9 11/24/9
f 14/7/10 12/6/10 11/25/10 13/26/10
f 16/9/11 14/7/11 13/27/11 15/28/11
f 18/2/12 16/9/12 15/29/12 17/30/12
f 8/3/13 18/2/13 17/31/13 7/32/13
f 9/33/14 7/34/14 17/35/14 15/36/14 13/37/14 11/38/14
